<svg xmlns="http://www.w3.org/2000/svg" viewBox="0 0 640 400" role="img" aria-label="Notion board">
  <rect width="640" height="400" rx="28" fill="#0b1020"/>
  <path d="M64 62h448a24 24 0 0 1 24 24v250H88a24 24 0 0 1-24-24z" fill="#f7fbff"/>
  <path d="M64 86a24 24 0 0 1 24-24h448v72H64z" fill="#20c7d2"/>
  <rect x="104" y="166" width="132" height="178" rx="14" fill="#edf5f7"/>
  <rect x="270" y="166" width="132" height="178" rx="14" fill="#edf5f7"/>
  <rect x="436" y="166" width="132" height="178" rx="14" fill="#edf5f7"/>
  <path d="M122 196h76M122 228h94M288 196h76M288 228h94M454 196h76M454 228h94" stroke="#253044" stroke-width="12" stroke-linecap="round"/>
  <circle cx="552" cy="84" r="42" fill="#ff637d"/>
</svg>
